<svg width="26" height="17" viewBox="0 0 26 17" fill="none" xmlns="http://www.w3.org/2000/svg">
<path d="M17.4688 4.78131V13.2813C17.4688 13.4927 17.3403 13.6953 17.1118 13.8448C16.8832 13.9942 16.5732 14.0782 16.25 14.0782C15.9268 14.0782 15.6168 13.9942 15.3882 13.8448C15.1597 13.6953 15.0312 13.4927 15.0312 13.2813V4.78131C15.0312 4.56997 15.1597 4.36728 15.3882 4.21784C15.6168 4.06839 15.9268 3.98444 16.25 3.98444C16.5732 3.98444 16.8832 4.06839 17.1118 4.21784C17.3403 4.36728 17.4688 4.56997 17.4688 4.78131ZM12.1875 6.64069C11.8643 6.64069 11.5543 6.72464 11.3257 6.87409C11.0972 7.02353 10.9688 7.22622 10.9688 7.43756V13.2813C10.9688 13.4927 11.0972 13.6953 11.3257 13.8448C11.5543 13.9942 11.8643 14.0782 12.1875 14.0782C12.5107 14.0782 12.8207 13.9942 13.0493 13.8448C13.2778 13.6953 13.4062 13.4927 13.4062 13.2813V7.43756C13.4062 7.22622 13.2778 7.02353 13.0493 6.87409C12.8207 6.72464 12.5107 6.64069 12.1875 6.64069ZM8.125 9.29694C7.80177 9.29694 7.49177 9.38089 7.26321 9.53034C7.03465 9.67978 6.90625 9.88247 6.90625 10.0938V13.2813C6.90625 13.4927 7.03465 13.6953 7.26321 13.8448C7.49177 13.9942 7.80177 14.0782 8.125 14.0782C8.44823 14.0782 8.75823 13.9942 8.98679 13.8448C9.21535 13.6953 9.34375 13.4927 9.34375 13.2813V10.0938C9.34375 9.88247 9.21535 9.67978 8.98679 9.53034C8.75823 9.38089 8.44823 9.29694 8.125 9.29694ZM4.0625 11.9532C3.73927 11.9532 3.42927 12.0371 3.20071 12.1866C2.97215 12.336 2.84375 12.5387 2.84375 12.7501V13.2813C2.84375 13.4927 2.97215 13.6953 3.20071 13.8448C3.42927 13.9942 3.73927 14.0782 4.0625 14.0782C4.38573 14.0782 4.69573 13.9942 4.92429 13.8448C5.15285 13.6953 5.28125 13.4927 5.28125 13.2813V12.7501C5.28125 12.5387 5.15285 12.336 4.92429 12.1866C4.69573 12.0371 4.38573 11.9532 4.0625 11.9532Z" fill="black"/>
</svg>
