<svg width="24" height="11" viewBox="0 0 24 11" fill="none" xmlns="http://www.w3.org/2000/svg">
<path d="M3 2.75H10.5V8.25H3V2.75Z" fill="black"/>
<path d="M3 0C2.20435 0 1.44129 0.289731 0.87868 0.805456C0.316071 1.32118 0 2.02065 0 2.75L0 8.25C0 8.97935 0.316071 9.67882 0.87868 10.1945C1.44129 10.7103 2.20435 11 3 11H18C18.7956 11 19.5587 10.7103 20.1213 10.1945C20.6839 9.67882 21 8.97935 21 8.25V2.75C21 2.02065 20.6839 1.32118 20.1213 0.805456C19.5587 0.289731 18.7956 0 18 0H3ZM18 1.375C18.3978 1.375 18.7794 1.51987 19.0607 1.77773C19.342 2.03559 19.5 2.38533 19.5 2.75V8.25C19.5 8.61467 19.342 8.96441 19.0607 9.22227C18.7794 9.48013 18.3978 9.625 18 9.625H3C2.60218 9.625 2.22064 9.48013 1.93934 9.22227C1.65804 8.96441 1.5 8.61467 1.5 8.25V2.75C1.5 2.38533 1.65804 2.03559 1.93934 1.77773C2.22064 1.51987 2.60218 1.375 3 1.375H18ZM24 5.5C24 6.04701 23.7629 6.57161 23.341 6.95841C22.919 7.3452 22.3467 7.5625 21.75 7.5625V3.4375C22.3467 3.4375 22.919 3.6548 23.341 4.04159C23.7629 4.42839 24 4.95299 24 5.5Z" fill="black"/>
</svg>
