<svg width="18" height="18" viewBox="0 0 18 18" fill="none" xmlns="http://www.w3.org/2000/svg">
<g id="Group">
<path id="Vector" fill-rule="evenodd" clip-rule="evenodd" d="M8.99984 1.29175C6.95546 1.29175 4.99482 2.10387 3.54922 3.54947C2.10363 4.99506 1.2915 6.9557 1.2915 9.00008C1.2915 11.0445 2.10363 13.0051 3.54922 14.4507C4.99482 15.8963 6.95546 16.7084 8.99984 16.7084C11.0442 16.7084 13.0049 15.8963 14.4505 14.4507C15.896 13.0051 16.7082 11.0445 16.7082 9.00008C16.7082 6.9557 15.896 4.99506 14.4505 3.54947C13.0049 2.10387 11.0442 1.29175 8.99984 1.29175ZM0.0415039 9.00008C0.0415039 4.05258 4.05234 0.041748 8.99984 0.041748C13.9473 0.041748 17.9582 4.05258 17.9582 9.00008C17.9582 13.9476 13.9473 17.9584 8.99984 17.9584C4.05234 17.9584 0.0415039 13.9476 0.0415039 9.00008ZM5.99734 11.9609C6.04627 11.8949 6.10774 11.8392 6.17821 11.797C6.24869 11.7548 6.32679 11.7269 6.40806 11.7149C6.48933 11.7029 6.57216 11.7071 6.65183 11.7271C6.73149 11.7472 6.80642 11.7827 6.87234 11.8317C7.479 12.2817 8.2115 12.5417 8.99984 12.5417C9.78817 12.5417 10.5207 12.2809 11.1273 11.8317C11.193 11.7806 11.2683 11.7431 11.3487 11.7215C11.4291 11.6998 11.513 11.6945 11.5955 11.7057C11.678 11.717 11.7575 11.7446 11.8291 11.7869C11.9008 11.8293 11.9633 11.8856 12.013 11.9524C12.0626 12.0193 12.0984 12.0953 12.1182 12.1762C12.138 12.2571 12.1415 12.3411 12.1284 12.4233C12.1153 12.5056 12.0859 12.5843 12.0419 12.655C11.9979 12.7258 11.9403 12.787 11.8723 12.8351C11.0429 13.4552 10.0354 13.7907 8.99984 13.7917C7.96426 13.7907 6.95673 13.4552 6.12734 12.8351C5.99419 12.7364 5.9057 12.5889 5.88132 12.4249C5.85694 12.261 5.89867 12.0941 5.99734 11.9609Z" fill="#9DA1B4"/>
<path id="Vector_2" d="M12.3332 7.75C12.3332 8.44 11.9598 9 11.4998 9C11.0398 9 10.6665 8.44 10.6665 7.75C10.6665 7.06 11.0398 6.5 11.4998 6.5C11.9598 6.5 12.3332 7.06 12.3332 7.75ZM7.33317 7.75C7.33317 8.44 6.95984 9 6.49984 9C6.03984 9 5.6665 8.44 5.6665 7.75C5.6665 7.06 6.03984 6.5 6.49984 6.5C6.95984 6.5 7.33317 7.06 7.33317 7.75Z" fill="#9DA1B4"/>
</g>
</svg>
